<mxfile host="app.diagrams.net" modified="2023-05-21T17:50:22.453Z" agent="Mozilla/5.0 (Windows NT 10.0; Win64; x64) AppleWebKit/537.36 (KHTML, like Gecko) Chrome/113.0.0.0 Safari/537.36" etag="8K2wmO7CrMbB9ZATFdYC" version="21.3.2" type="device">
  <diagram name="Page-1" id="2YBvvXClWsGukQMizWep">
    <mxGraphModel dx="1750" dy="968" grid="1" gridSize="10" guides="1" tooltips="1" connect="1" arrows="1" fold="1" page="1" pageScale="1" pageWidth="850" pageHeight="1100" math="0" shadow="0">
      <root>
        <mxCell id="0" />
        <mxCell id="1" parent="0" />
        <mxCell id="aM9ryv3xv72pqoxQDRHE-8" value="in" style="html=1;verticalAlign=bottom;endArrow=open;dashed=1;endSize=8;edgeStyle=elbowEdgeStyle;elbow=vertical;curved=0;rounded=0;" parent="1" edge="1">
          <mxGeometry relative="1" as="geometry">
            <mxPoint x="400" y="260" as="targetPoint" />
            <Array as="points">
              <mxPoint x="885" y="260" />
            </Array>
            <mxPoint x="960" y="260" as="sourcePoint" />
          </mxGeometry>
        </mxCell>
        <mxCell id="NxTXOjhi3oSF7D-S0TAK-1" value="mouseclick" style="shape=umlFrame;whiteSpace=wrap;html=1;pointerEvents=0;width=90;height=15;" parent="1" vertex="1">
          <mxGeometry x="60" y="80" width="1140" height="820" as="geometry" />
        </mxCell>
        <mxCell id="NxTXOjhi3oSF7D-S0TAK-2" value="User" style="shape=umlActor;verticalLabelPosition=bottom;verticalAlign=top;html=1;" parent="1" vertex="1">
          <mxGeometry x="80" y="110" width="30" height="60" as="geometry" />
        </mxCell>
        <mxCell id="NxTXOjhi3oSF7D-S0TAK-3" value="mouseClicked(e)" style="html=1;verticalAlign=bottom;startArrow=oval;endArrow=block;startSize=8;edgeStyle=elbowEdgeStyle;elbow=vertical;curved=0;rounded=0;" parent="1" target="NxTXOjhi3oSF7D-S0TAK-5" edge="1">
          <mxGeometry relative="1" as="geometry">
            <mxPoint x="120" y="150" as="sourcePoint" />
            <mxPoint x="195" y="150" as="targetPoint" />
            <mxPoint as="offset" />
          </mxGeometry>
        </mxCell>
        <mxCell id="NxTXOjhi3oSF7D-S0TAK-4" value="m:MouseIn" style="shape=umlLifeline;perimeter=lifelinePerimeter;whiteSpace=wrap;html=1;container=0;dropTarget=0;collapsible=0;recursiveResize=0;outlineConnect=0;portConstraint=eastwest;newEdgeStyle={&quot;edgeStyle&quot;:&quot;elbowEdgeStyle&quot;,&quot;elbow&quot;:&quot;vertical&quot;,&quot;curved&quot;:0,&quot;rounded&quot;:0};" parent="1" vertex="1">
          <mxGeometry x="220" y="90" width="100" height="810" as="geometry" />
        </mxCell>
        <mxCell id="NxTXOjhi3oSF7D-S0TAK-5" value="" style="html=1;points=[];perimeter=orthogonalPerimeter;outlineConnect=0;targetShapes=umlLifeline;portConstraint=eastwest;newEdgeStyle={&quot;edgeStyle&quot;:&quot;elbowEdgeStyle&quot;,&quot;elbow&quot;:&quot;vertical&quot;,&quot;curved&quot;:0,&quot;rounded&quot;:0};" parent="NxTXOjhi3oSF7D-S0TAK-4" vertex="1">
          <mxGeometry x="45" y="50" width="10" height="740" as="geometry" />
        </mxCell>
        <mxCell id="NxTXOjhi3oSF7D-S0TAK-6" value="" style="html=1;verticalAlign=bottom;endArrow=open;dashed=1;endSize=8;edgeStyle=elbowEdgeStyle;elbow=vertical;curved=0;rounded=0;" parent="1" edge="1">
          <mxGeometry relative="1" as="geometry">
            <mxPoint x="110" y="860" as="targetPoint" />
            <Array as="points">
              <mxPoint x="205" y="860" />
            </Array>
            <mxPoint x="270" y="860" as="sourcePoint" />
          </mxGeometry>
        </mxCell>
        <mxCell id="NxTXOjhi3oSF7D-S0TAK-8" value="" style="endArrow=none;dashed=1;html=1;rounded=0;exitX=-0.005;exitY=0.259;exitDx=0;exitDy=0;exitPerimeter=0;entryX=1;entryY=0.252;entryDx=0;entryDy=0;entryPerimeter=0;" parent="1" target="NxTXOjhi3oSF7D-S0TAK-11" edge="1" source="NxTXOjhi3oSF7D-S0TAK-11">
          <mxGeometry width="50" height="50" relative="1" as="geometry">
            <mxPoint x="71" y="280" as="sourcePoint" />
            <mxPoint x="1066" y="277" as="targetPoint" />
          </mxGeometry>
        </mxCell>
        <mxCell id="NxTXOjhi3oSF7D-S0TAK-9" value="" style="endArrow=none;dashed=1;html=1;rounded=0;exitX=-0.002;exitY=0.477;exitDx=0;exitDy=0;exitPerimeter=0;entryX=1.007;entryY=0.479;entryDx=0;entryDy=0;entryPerimeter=0;" parent="1" target="NxTXOjhi3oSF7D-S0TAK-11" edge="1" source="NxTXOjhi3oSF7D-S0TAK-11">
          <mxGeometry width="50" height="50" relative="1" as="geometry">
            <mxPoint x="70" y="357" as="sourcePoint" />
            <mxPoint x="1065" y="353" as="targetPoint" />
          </mxGeometry>
        </mxCell>
        <mxCell id="NxTXOjhi3oSF7D-S0TAK-10" value="" style="endArrow=none;dashed=1;html=1;rounded=0;entryX=1.004;entryY=0.716;entryDx=0;entryDy=0;entryPerimeter=0;exitX=-0.003;exitY=0.714;exitDx=0;exitDy=0;exitPerimeter=0;" parent="1" source="NxTXOjhi3oSF7D-S0TAK-11" target="NxTXOjhi3oSF7D-S0TAK-11" edge="1">
          <mxGeometry width="50" height="50" relative="1" as="geometry">
            <mxPoint x="70" y="636" as="sourcePoint" />
            <mxPoint x="1079.5" y="430" as="targetPoint" />
          </mxGeometry>
        </mxCell>
        <mxCell id="NxTXOjhi3oSF7D-S0TAK-11" value="alt" style="shape=umlFrame;whiteSpace=wrap;html=1;pointerEvents=0;" parent="1" vertex="1">
          <mxGeometry x="72" y="190" width="1098" height="660" as="geometry" />
        </mxCell>
        <mxCell id="NxTXOjhi3oSF7D-S0TAK-12" value="[windowOption==game]" style="text;html=1;strokeColor=none;fillColor=none;align=center;verticalAlign=middle;whiteSpace=wrap;rounded=0;" parent="1" vertex="1">
          <mxGeometry x="150" y="240" width="50" height="30" as="geometry" />
        </mxCell>
        <mxCell id="NxTXOjhi3oSF7D-S0TAK-13" value="[windowOption==end]" style="text;html=1;strokeColor=none;fillColor=none;align=center;verticalAlign=middle;whiteSpace=wrap;rounded=0;" parent="1" vertex="1">
          <mxGeometry x="140" y="420" width="60" height="30" as="geometry" />
        </mxCell>
        <mxCell id="NxTXOjhi3oSF7D-S0TAK-14" value="[windowOption==newgame]" style="text;html=1;strokeColor=none;fillColor=none;align=center;verticalAlign=middle;whiteSpace=wrap;rounded=0;" parent="1" vertex="1">
          <mxGeometry x="145" y="570" width="60" height="30" as="geometry" />
        </mxCell>
        <mxCell id="NxTXOjhi3oSF7D-S0TAK-15" value="[windowOption==menu]" style="text;html=1;strokeColor=none;fillColor=none;align=center;verticalAlign=middle;whiteSpace=wrap;rounded=0;" parent="1" vertex="1">
          <mxGeometry x="140" y="790" width="60" height="30" as="geometry" />
        </mxCell>
        <mxCell id="NxTXOjhi3oSF7D-S0TAK-16" value="g:GameView" style="shape=umlLifeline;perimeter=lifelinePerimeter;whiteSpace=wrap;html=1;container=0;dropTarget=0;collapsible=0;recursiveResize=0;outlineConnect=0;portConstraint=eastwest;newEdgeStyle={&quot;edgeStyle&quot;:&quot;elbowEdgeStyle&quot;,&quot;elbow&quot;:&quot;vertical&quot;,&quot;curved&quot;:0,&quot;rounded&quot;:0};" parent="1" vertex="1">
          <mxGeometry x="350" y="90" width="100" height="270" as="geometry" />
        </mxCell>
        <mxCell id="NxTXOjhi3oSF7D-S0TAK-17" value="" style="html=1;points=[];perimeter=orthogonalPerimeter;outlineConnect=0;targetShapes=umlLifeline;portConstraint=eastwest;newEdgeStyle={&quot;edgeStyle&quot;:&quot;elbowEdgeStyle&quot;,&quot;elbow&quot;:&quot;vertical&quot;,&quot;curved&quot;:0,&quot;rounded&quot;:0};" parent="NxTXOjhi3oSF7D-S0TAK-16" vertex="1">
          <mxGeometry x="45" y="120" width="10" height="140" as="geometry" />
        </mxCell>
        <mxCell id="NxTXOjhi3oSF7D-S0TAK-18" value="end:EndGameView" style="shape=umlLifeline;perimeter=lifelinePerimeter;whiteSpace=wrap;html=1;container=0;dropTarget=0;collapsible=0;recursiveResize=0;outlineConnect=0;portConstraint=eastwest;newEdgeStyle={&quot;edgeStyle&quot;:&quot;elbowEdgeStyle&quot;,&quot;elbow&quot;:&quot;vertical&quot;,&quot;curved&quot;:0,&quot;rounded&quot;:0};" parent="1" vertex="1">
          <mxGeometry x="455" y="90" width="100" height="420" as="geometry" />
        </mxCell>
        <mxCell id="NxTXOjhi3oSF7D-S0TAK-19" value="" style="html=1;points=[];perimeter=orthogonalPerimeter;outlineConnect=0;targetShapes=umlLifeline;portConstraint=eastwest;newEdgeStyle={&quot;edgeStyle&quot;:&quot;elbowEdgeStyle&quot;,&quot;elbow&quot;:&quot;vertical&quot;,&quot;curved&quot;:0,&quot;rounded&quot;:0};" parent="NxTXOjhi3oSF7D-S0TAK-18" vertex="1">
          <mxGeometry x="45" y="290" width="10" height="120" as="geometry" />
        </mxCell>
        <mxCell id="NxTXOjhi3oSF7D-S0TAK-20" value="n:NewGameView" style="shape=umlLifeline;perimeter=lifelinePerimeter;whiteSpace=wrap;html=1;container=0;dropTarget=0;collapsible=0;recursiveResize=0;outlineConnect=0;portConstraint=eastwest;newEdgeStyle={&quot;edgeStyle&quot;:&quot;elbowEdgeStyle&quot;,&quot;elbow&quot;:&quot;vertical&quot;,&quot;curved&quot;:0,&quot;rounded&quot;:0};" parent="1" vertex="1">
          <mxGeometry x="565" y="90" width="100" height="580" as="geometry" />
        </mxCell>
        <mxCell id="NxTXOjhi3oSF7D-S0TAK-21" value="" style="html=1;points=[];perimeter=orthogonalPerimeter;outlineConnect=0;targetShapes=umlLifeline;portConstraint=eastwest;newEdgeStyle={&quot;edgeStyle&quot;:&quot;elbowEdgeStyle&quot;,&quot;elbow&quot;:&quot;vertical&quot;,&quot;curved&quot;:0,&quot;rounded&quot;:0};" parent="NxTXOjhi3oSF7D-S0TAK-20" vertex="1">
          <mxGeometry x="45" y="440" width="10" height="130" as="geometry" />
        </mxCell>
        <mxCell id="NxTXOjhi3oSF7D-S0TAK-22" value="m:MenuView" style="shape=umlLifeline;perimeter=lifelinePerimeter;whiteSpace=wrap;html=1;container=0;dropTarget=0;collapsible=0;recursiveResize=0;outlineConnect=0;portConstraint=eastwest;newEdgeStyle={&quot;edgeStyle&quot;:&quot;elbowEdgeStyle&quot;,&quot;elbow&quot;:&quot;vertical&quot;,&quot;curved&quot;:0,&quot;rounded&quot;:0};" parent="1" vertex="1">
          <mxGeometry x="710" y="90" width="100" height="760" as="geometry" />
        </mxCell>
        <mxCell id="NxTXOjhi3oSF7D-S0TAK-23" value="" style="html=1;points=[];perimeter=orthogonalPerimeter;outlineConnect=0;targetShapes=umlLifeline;portConstraint=eastwest;newEdgeStyle={&quot;edgeStyle&quot;:&quot;elbowEdgeStyle&quot;,&quot;elbow&quot;:&quot;vertical&quot;,&quot;curved&quot;:0,&quot;rounded&quot;:0};" parent="NxTXOjhi3oSF7D-S0TAK-22" vertex="1">
          <mxGeometry x="45" y="590" width="10" height="150" as="geometry" />
        </mxCell>
        <mxCell id="NxTXOjhi3oSF7D-S0TAK-24" value="c:Clickable" style="shape=umlLifeline;perimeter=lifelinePerimeter;whiteSpace=wrap;html=1;container=0;dropTarget=0;collapsible=0;recursiveResize=0;outlineConnect=0;portConstraint=eastwest;newEdgeStyle={&quot;edgeStyle&quot;:&quot;elbowEdgeStyle&quot;,&quot;elbow&quot;:&quot;vertical&quot;,&quot;curved&quot;:0,&quot;rounded&quot;:0};" parent="1" vertex="1">
          <mxGeometry x="900" y="90" width="100" height="760" as="geometry" />
        </mxCell>
        <mxCell id="NxTXOjhi3oSF7D-S0TAK-25" value="" style="html=1;points=[];perimeter=orthogonalPerimeter;outlineConnect=0;targetShapes=umlLifeline;portConstraint=eastwest;newEdgeStyle={&quot;edgeStyle&quot;:&quot;elbowEdgeStyle&quot;,&quot;elbow&quot;:&quot;vertical&quot;,&quot;curved&quot;:0,&quot;rounded&quot;:0};" parent="NxTXOjhi3oSF7D-S0TAK-24" vertex="1">
          <mxGeometry x="45" y="140" width="10" height="70" as="geometry" />
        </mxCell>
        <mxCell id="NxTXOjhi3oSF7D-S0TAK-26" value="" style="html=1;points=[];perimeter=orthogonalPerimeter;outlineConnect=0;targetShapes=umlLifeline;portConstraint=eastwest;newEdgeStyle={&quot;edgeStyle&quot;:&quot;elbowEdgeStyle&quot;,&quot;elbow&quot;:&quot;vertical&quot;,&quot;curved&quot;:0,&quot;rounded&quot;:0};" parent="NxTXOjhi3oSF7D-S0TAK-24" vertex="1">
          <mxGeometry x="45" y="310" width="10" height="60" as="geometry" />
        </mxCell>
        <mxCell id="NxTXOjhi3oSF7D-S0TAK-27" value="" style="html=1;points=[];perimeter=orthogonalPerimeter;outlineConnect=0;targetShapes=umlLifeline;portConstraint=eastwest;newEdgeStyle={&quot;edgeStyle&quot;:&quot;elbowEdgeStyle&quot;,&quot;elbow&quot;:&quot;vertical&quot;,&quot;curved&quot;:0,&quot;rounded&quot;:0};" parent="NxTXOjhi3oSF7D-S0TAK-24" vertex="1">
          <mxGeometry x="45" y="460" width="10" height="60" as="geometry" />
        </mxCell>
        <mxCell id="NxTXOjhi3oSF7D-S0TAK-28" value="" style="html=1;points=[];perimeter=orthogonalPerimeter;outlineConnect=0;targetShapes=umlLifeline;portConstraint=eastwest;newEdgeStyle={&quot;edgeStyle&quot;:&quot;elbowEdgeStyle&quot;,&quot;elbow&quot;:&quot;vertical&quot;,&quot;curved&quot;:0,&quot;rounded&quot;:0};" parent="NxTXOjhi3oSF7D-S0TAK-24" vertex="1">
          <mxGeometry x="45" y="620" width="10" height="80" as="geometry" />
        </mxCell>
        <mxCell id="NxTXOjhi3oSF7D-S0TAK-29" value="loop" style="shape=umlFrame;whiteSpace=wrap;html=1;pointerEvents=0;width=50;height=15;" parent="1" vertex="1">
          <mxGeometry x="280" y="220" width="790" height="110" as="geometry" />
        </mxCell>
        <mxCell id="NxTXOjhi3oSF7D-S0TAK-30" value="loop" style="shape=umlFrame;whiteSpace=wrap;html=1;pointerEvents=0;width=50;height=15;" parent="1" vertex="1">
          <mxGeometry x="340" y="390" width="730" height="90" as="geometry" />
        </mxCell>
        <mxCell id="NxTXOjhi3oSF7D-S0TAK-31" value="loop" style="shape=umlFrame;whiteSpace=wrap;html=1;pointerEvents=0;width=40;height=15;" parent="1" vertex="1">
          <mxGeometry x="420" y="540" width="670" height="100" as="geometry" />
        </mxCell>
        <mxCell id="NxTXOjhi3oSF7D-S0TAK-32" value="loop" style="shape=umlFrame;whiteSpace=wrap;html=1;pointerEvents=0;width=40;height=15;" parent="1" vertex="1">
          <mxGeometry x="540" y="700" width="620" height="110" as="geometry" />
        </mxCell>
        <mxCell id="8qd_vraw-I_DusuS2smC-1" value="[foreach c in clickables]" style="text;html=1;strokeColor=none;fillColor=none;align=center;verticalAlign=middle;whiteSpace=wrap;rounded=0;" vertex="1" parent="1">
          <mxGeometry x="280" y="240" width="120" height="30" as="geometry" />
        </mxCell>
        <mxCell id="8qd_vraw-I_DusuS2smC-2" value="[foreach c in clickables]" style="text;html=1;strokeColor=none;fillColor=none;align=center;verticalAlign=middle;whiteSpace=wrap;rounded=0;" vertex="1" parent="1">
          <mxGeometry x="350" y="400" width="150" height="30" as="geometry" />
        </mxCell>
        <mxCell id="8qd_vraw-I_DusuS2smC-3" value="[foreach c in clickables]" style="text;html=1;strokeColor=none;fillColor=none;align=center;verticalAlign=middle;whiteSpace=wrap;rounded=0;" vertex="1" parent="1">
          <mxGeometry x="470" y="550" width="145" height="30" as="geometry" />
        </mxCell>
        <mxCell id="8qd_vraw-I_DusuS2smC-4" value="[foreach c in clickables]" style="text;html=1;strokeColor=none;fillColor=none;align=center;verticalAlign=middle;whiteSpace=wrap;rounded=0;" vertex="1" parent="1">
          <mxGeometry x="580" y="710" width="155" height="30" as="geometry" />
        </mxCell>
        <mxCell id="8qd_vraw-I_DusuS2smC-6" value="isIn(): boolean" style="html=1;verticalAlign=bottom;endArrow=block;edgeStyle=elbowEdgeStyle;elbow=vertical;curved=0;rounded=0;" edge="1" parent="1" target="NxTXOjhi3oSF7D-S0TAK-24">
          <mxGeometry relative="1" as="geometry">
            <mxPoint x="400" y="240" as="sourcePoint" />
            <Array as="points">
              <mxPoint x="495" y="240" />
            </Array>
            <mxPoint x="580" y="240" as="targetPoint" />
          </mxGeometry>
        </mxCell>
        <mxCell id="8qd_vraw-I_DusuS2smC-8" value="alt" style="shape=umlFrame;whiteSpace=wrap;html=1;pointerEvents=0;width=30;height=15;" vertex="1" parent="1">
          <mxGeometry x="330" y="270" width="660" height="40" as="geometry" />
        </mxCell>
        <mxCell id="8qd_vraw-I_DusuS2smC-9" value="[in]" style="text;html=1;strokeColor=none;fillColor=none;align=center;verticalAlign=middle;whiteSpace=wrap;rounded=0;" vertex="1" parent="1">
          <mxGeometry x="330" y="280" width="60" height="30" as="geometry" />
        </mxCell>
        <mxCell id="8qd_vraw-I_DusuS2smC-10" value="clickAction()" style="html=1;verticalAlign=bottom;endArrow=block;edgeStyle=elbowEdgeStyle;elbow=vertical;curved=0;rounded=0;" edge="1" parent="1">
          <mxGeometry x="0.0182" y="-10" relative="1" as="geometry">
            <mxPoint x="400" y="280" as="sourcePoint" />
            <Array as="points">
              <mxPoint x="495" y="280" />
            </Array>
            <mxPoint x="950" y="280" as="targetPoint" />
            <mxPoint as="offset" />
          </mxGeometry>
        </mxCell>
        <mxCell id="8qd_vraw-I_DusuS2smC-11" value="" style="html=1;verticalAlign=bottom;endArrow=open;dashed=1;endSize=8;edgeStyle=elbowEdgeStyle;elbow=vertical;curved=0;rounded=0;" edge="1" parent="1">
          <mxGeometry relative="1" as="geometry">
            <mxPoint x="400" y="294" as="targetPoint" />
            <Array as="points">
              <mxPoint x="895" y="294.41" />
            </Array>
            <mxPoint x="950" y="294" as="sourcePoint" />
          </mxGeometry>
        </mxCell>
        <mxCell id="8qd_vraw-I_DusuS2smC-20" value="isIn(): boolean" style="html=1;verticalAlign=bottom;endArrow=block;edgeStyle=elbowEdgeStyle;elbow=vertical;curved=0;rounded=0;" edge="1" parent="1">
          <mxGeometry relative="1" as="geometry">
            <mxPoint x="510" y="409" as="sourcePoint" />
            <Array as="points">
              <mxPoint x="585" y="408.82" />
            </Array>
            <mxPoint x="950" y="409" as="targetPoint" />
          </mxGeometry>
        </mxCell>
        <mxCell id="8qd_vraw-I_DusuS2smC-21" value="isIn(): boolean" style="html=1;verticalAlign=bottom;endArrow=block;edgeStyle=elbowEdgeStyle;elbow=vertical;curved=0;rounded=0;" edge="1" parent="1">
          <mxGeometry relative="1" as="geometry">
            <mxPoint x="610" y="560.1800000000001" as="sourcePoint" />
            <Array as="points">
              <mxPoint x="685" y="560" />
            </Array>
            <mxPoint x="950" y="560" as="targetPoint" />
          </mxGeometry>
        </mxCell>
        <mxCell id="8qd_vraw-I_DusuS2smC-22" value="isIn(): boolean" style="html=1;verticalAlign=bottom;endArrow=block;edgeStyle=elbowEdgeStyle;elbow=vertical;curved=0;rounded=0;" edge="1" parent="1">
          <mxGeometry relative="1" as="geometry">
            <mxPoint x="760" y="720.1800000000001" as="sourcePoint" />
            <Array as="points">
              <mxPoint x="835" y="720" />
            </Array>
            <mxPoint x="950" y="720" as="targetPoint" />
          </mxGeometry>
        </mxCell>
        <mxCell id="8qd_vraw-I_DusuS2smC-23" value="in" style="html=1;verticalAlign=bottom;endArrow=open;dashed=1;endSize=8;edgeStyle=elbowEdgeStyle;elbow=vertical;curved=0;rounded=0;" edge="1" parent="1">
          <mxGeometry x="0.0009" y="6" relative="1" as="geometry">
            <mxPoint x="510" y="424.40999999999997" as="targetPoint" />
            <Array as="points">
              <mxPoint x="995" y="424.40999999999997" />
            </Array>
            <mxPoint x="950" y="424" as="sourcePoint" />
            <mxPoint as="offset" />
          </mxGeometry>
        </mxCell>
        <mxCell id="8qd_vraw-I_DusuS2smC-24" value="in" style="html=1;verticalAlign=bottom;endArrow=open;dashed=1;endSize=8;edgeStyle=elbowEdgeStyle;elbow=vertical;curved=0;rounded=0;" edge="1" parent="1">
          <mxGeometry x="-0.0005" y="10" relative="1" as="geometry">
            <mxPoint x="620" y="570" as="targetPoint" />
            <Array as="points" />
            <mxPoint x="950" y="570" as="sourcePoint" />
            <mxPoint as="offset" />
          </mxGeometry>
        </mxCell>
        <mxCell id="8qd_vraw-I_DusuS2smC-25" value="in" style="html=1;verticalAlign=bottom;endArrow=open;dashed=1;endSize=8;edgeStyle=elbowEdgeStyle;elbow=vertical;curved=0;rounded=0;" edge="1" parent="1">
          <mxGeometry x="0.0009" y="6" relative="1" as="geometry">
            <mxPoint x="760" y="740.41" as="targetPoint" />
            <Array as="points" />
            <mxPoint x="950" y="740" as="sourcePoint" />
            <mxPoint as="offset" />
          </mxGeometry>
        </mxCell>
        <mxCell id="8qd_vraw-I_DusuS2smC-26" value="alt" style="shape=umlFrame;whiteSpace=wrap;html=1;pointerEvents=0;width=30;height=15;" vertex="1" parent="1">
          <mxGeometry x="360" y="430" width="660" height="40" as="geometry" />
        </mxCell>
        <mxCell id="8qd_vraw-I_DusuS2smC-27" value="alt" style="shape=umlFrame;whiteSpace=wrap;html=1;pointerEvents=0;width=30;height=15;" vertex="1" parent="1">
          <mxGeometry x="425" y="580" width="660" height="40" as="geometry" />
        </mxCell>
        <mxCell id="8qd_vraw-I_DusuS2smC-28" value="alt" style="shape=umlFrame;whiteSpace=wrap;html=1;pointerEvents=0;width=30;height=15;" vertex="1" parent="1">
          <mxGeometry x="580" y="750" width="540" height="50" as="geometry" />
        </mxCell>
        <mxCell id="8qd_vraw-I_DusuS2smC-29" value="clickAction()" style="html=1;verticalAlign=bottom;endArrow=block;edgeStyle=elbowEdgeStyle;elbow=vertical;curved=0;rounded=0;" edge="1" parent="1" target="NxTXOjhi3oSF7D-S0TAK-26">
          <mxGeometry x="0.0182" y="-10" relative="1" as="geometry">
            <mxPoint x="510" y="440" as="sourcePoint" />
            <Array as="points">
              <mxPoint x="540" y="440" />
              <mxPoint x="595" y="449.40999999999997" />
            </Array>
            <mxPoint x="1050" y="449.40999999999997" as="targetPoint" />
            <mxPoint as="offset" />
          </mxGeometry>
        </mxCell>
        <mxCell id="8qd_vraw-I_DusuS2smC-30" value="clickAction()" style="html=1;verticalAlign=bottom;endArrow=block;edgeStyle=elbowEdgeStyle;elbow=vertical;curved=0;rounded=0;" edge="1" parent="1">
          <mxGeometry x="0.0182" y="-10" relative="1" as="geometry">
            <mxPoint x="610" y="589.41" as="sourcePoint" />
            <Array as="points">
              <mxPoint x="640" y="589.41" />
              <mxPoint x="695" y="598.8199999999999" />
            </Array>
            <mxPoint x="950" y="589" as="targetPoint" />
            <mxPoint as="offset" />
          </mxGeometry>
        </mxCell>
        <mxCell id="8qd_vraw-I_DusuS2smC-31" value="clickAction()" style="html=1;verticalAlign=bottom;endArrow=block;edgeStyle=elbowEdgeStyle;elbow=vertical;curved=0;rounded=0;" edge="1" parent="1">
          <mxGeometry x="0.0182" y="-10" relative="1" as="geometry">
            <mxPoint x="760" y="760" as="sourcePoint" />
            <Array as="points">
              <mxPoint x="790" y="760" />
              <mxPoint x="845" y="769.41" />
            </Array>
            <mxPoint x="950" y="760" as="targetPoint" />
            <mxPoint as="offset" />
          </mxGeometry>
        </mxCell>
        <mxCell id="8qd_vraw-I_DusuS2smC-32" value="" style="html=1;verticalAlign=bottom;endArrow=open;dashed=1;endSize=8;edgeStyle=elbowEdgeStyle;elbow=vertical;curved=0;rounded=0;" edge="1" parent="1" source="NxTXOjhi3oSF7D-S0TAK-26">
          <mxGeometry relative="1" as="geometry">
            <mxPoint x="500" y="450" as="targetPoint" />
            <Array as="points">
              <mxPoint x="995" y="450.41" />
            </Array>
            <mxPoint x="1050" y="450" as="sourcePoint" />
          </mxGeometry>
        </mxCell>
        <mxCell id="8qd_vraw-I_DusuS2smC-34" value="" style="html=1;verticalAlign=bottom;endArrow=open;dashed=1;endSize=8;edgeStyle=elbowEdgeStyle;elbow=vertical;curved=0;rounded=0;" edge="1" parent="1">
          <mxGeometry relative="1" as="geometry">
            <mxPoint x="610" y="600" as="targetPoint" />
            <Array as="points">
              <mxPoint x="1105" y="600.4100000000001" />
            </Array>
            <mxPoint x="950" y="600" as="sourcePoint" />
          </mxGeometry>
        </mxCell>
        <mxCell id="8qd_vraw-I_DusuS2smC-35" value="" style="html=1;verticalAlign=bottom;endArrow=open;dashed=1;endSize=8;edgeStyle=elbowEdgeStyle;elbow=vertical;curved=0;rounded=0;" edge="1" parent="1">
          <mxGeometry relative="1" as="geometry">
            <mxPoint x="760" y="774" as="targetPoint" />
            <Array as="points">
              <mxPoint x="995" y="774.82" />
            </Array>
            <mxPoint x="950" y="774" as="sourcePoint" />
          </mxGeometry>
        </mxCell>
        <mxCell id="8qd_vraw-I_DusuS2smC-36" value="[in]" style="text;html=1;strokeColor=none;fillColor=none;align=center;verticalAlign=middle;whiteSpace=wrap;rounded=0;" vertex="1" parent="1">
          <mxGeometry x="400" y="435" width="60" height="30" as="geometry" />
        </mxCell>
        <mxCell id="8qd_vraw-I_DusuS2smC-37" value="[in]" style="text;html=1;strokeColor=none;fillColor=none;align=center;verticalAlign=middle;whiteSpace=wrap;rounded=0;" vertex="1" parent="1">
          <mxGeometry x="460" y="590" width="60" height="30" as="geometry" />
        </mxCell>
        <mxCell id="8qd_vraw-I_DusuS2smC-38" value="[in]" style="text;html=1;strokeColor=none;fillColor=none;align=center;verticalAlign=middle;whiteSpace=wrap;rounded=0;" vertex="1" parent="1">
          <mxGeometry x="615" y="760" width="60" height="30" as="geometry" />
        </mxCell>
        <mxCell id="8qd_vraw-I_DusuS2smC-39" value="" style="html=1;verticalAlign=bottom;endArrow=block;edgeStyle=elbowEdgeStyle;elbow=vertical;curved=0;rounded=0;" edge="1" parent="1" target="NxTXOjhi3oSF7D-S0TAK-17">
          <mxGeometry x="0.1538" y="10" relative="1" as="geometry">
            <mxPoint x="270" y="210" as="sourcePoint" />
            <Array as="points">
              <mxPoint x="280" y="210" />
            </Array>
            <mxPoint x="380" y="210" as="targetPoint" />
            <mxPoint x="1" as="offset" />
          </mxGeometry>
        </mxCell>
        <mxCell id="8qd_vraw-I_DusuS2smC-40" value="mouseClicked(e)" style="edgeLabel;html=1;align=center;verticalAlign=middle;resizable=0;points=[];" vertex="1" connectable="0" parent="8qd_vraw-I_DusuS2smC-39">
          <mxGeometry x="-0.4185" y="1" relative="1" as="geometry">
            <mxPoint x="41" y="-9" as="offset" />
          </mxGeometry>
        </mxCell>
        <mxCell id="8qd_vraw-I_DusuS2smC-41" value="" style="html=1;verticalAlign=bottom;endArrow=block;edgeStyle=elbowEdgeStyle;elbow=vertical;curved=0;rounded=0;" edge="1" parent="1" target="NxTXOjhi3oSF7D-S0TAK-19">
          <mxGeometry x="0.1538" y="10" relative="1" as="geometry">
            <mxPoint x="272.5" y="379.88" as="sourcePoint" />
            <Array as="points" />
            <mxPoint x="407.5" y="379.88" as="targetPoint" />
            <mxPoint x="1" as="offset" />
          </mxGeometry>
        </mxCell>
        <mxCell id="8qd_vraw-I_DusuS2smC-42" value="mouseClicked(e)" style="edgeLabel;html=1;align=center;verticalAlign=middle;resizable=0;points=[];" vertex="1" connectable="0" parent="8qd_vraw-I_DusuS2smC-41">
          <mxGeometry x="-0.4185" y="1" relative="1" as="geometry">
            <mxPoint x="41" y="-9" as="offset" />
          </mxGeometry>
        </mxCell>
        <mxCell id="8qd_vraw-I_DusuS2smC-43" value="" style="html=1;verticalAlign=bottom;endArrow=block;edgeStyle=elbowEdgeStyle;elbow=vertical;curved=0;rounded=0;" edge="1" parent="1" target="NxTXOjhi3oSF7D-S0TAK-21">
          <mxGeometry x="0.1538" y="10" relative="1" as="geometry">
            <mxPoint x="265" y="530" as="sourcePoint" />
            <Array as="points" />
            <mxPoint x="400" y="530" as="targetPoint" />
            <mxPoint x="1" as="offset" />
          </mxGeometry>
        </mxCell>
        <mxCell id="8qd_vraw-I_DusuS2smC-44" value="mouseClicked(e)" style="edgeLabel;html=1;align=center;verticalAlign=middle;resizable=0;points=[];" vertex="1" connectable="0" parent="8qd_vraw-I_DusuS2smC-43">
          <mxGeometry x="-0.4185" y="1" relative="1" as="geometry">
            <mxPoint x="41" y="-9" as="offset" />
          </mxGeometry>
        </mxCell>
        <mxCell id="8qd_vraw-I_DusuS2smC-45" value="" style="html=1;verticalAlign=bottom;endArrow=block;edgeStyle=elbowEdgeStyle;elbow=vertical;curved=0;rounded=0;" edge="1" parent="1" target="NxTXOjhi3oSF7D-S0TAK-23">
          <mxGeometry x="0.1538" y="10" relative="1" as="geometry">
            <mxPoint x="270" y="690.47" as="sourcePoint" />
            <Array as="points" />
            <mxPoint x="615" y="690.47" as="targetPoint" />
            <mxPoint x="1" as="offset" />
          </mxGeometry>
        </mxCell>
        <mxCell id="8qd_vraw-I_DusuS2smC-46" value="mouseClicked(e)" style="edgeLabel;html=1;align=center;verticalAlign=middle;resizable=0;points=[];" vertex="1" connectable="0" parent="8qd_vraw-I_DusuS2smC-45">
          <mxGeometry x="-0.4185" y="1" relative="1" as="geometry">
            <mxPoint x="41" y="-9" as="offset" />
          </mxGeometry>
        </mxCell>
        <mxCell id="8qd_vraw-I_DusuS2smC-47" value="" style="html=1;verticalAlign=bottom;endArrow=open;dashed=1;endSize=8;edgeStyle=elbowEdgeStyle;elbow=vertical;curved=0;rounded=0;" edge="1" parent="1" target="NxTXOjhi3oSF7D-S0TAK-5">
          <mxGeometry relative="1" as="geometry">
            <mxPoint x="610" y="820.47" as="targetPoint" />
            <Array as="points" />
            <mxPoint x="770" y="820.47" as="sourcePoint" />
          </mxGeometry>
        </mxCell>
        <mxCell id="8qd_vraw-I_DusuS2smC-48" value="" style="html=1;verticalAlign=bottom;endArrow=open;dashed=1;endSize=8;edgeStyle=elbowEdgeStyle;elbow=vertical;curved=0;rounded=0;" edge="1" parent="1" target="NxTXOjhi3oSF7D-S0TAK-5">
          <mxGeometry relative="1" as="geometry">
            <mxPoint x="462.5" y="650" as="targetPoint" />
            <Array as="points">
              <mxPoint x="557.5" y="650" />
            </Array>
            <mxPoint x="610" y="650" as="sourcePoint" />
          </mxGeometry>
        </mxCell>
        <mxCell id="8qd_vraw-I_DusuS2smC-49" value="" style="html=1;verticalAlign=bottom;endArrow=open;dashed=1;endSize=8;edgeStyle=elbowEdgeStyle;elbow=vertical;curved=0;rounded=0;" edge="1" parent="1">
          <mxGeometry relative="1" as="geometry">
            <mxPoint x="270" y="489" as="targetPoint" />
            <Array as="points">
              <mxPoint x="545" y="489.40999999999997" />
            </Array>
            <mxPoint x="500" y="489" as="sourcePoint" />
          </mxGeometry>
        </mxCell>
        <mxCell id="8qd_vraw-I_DusuS2smC-50" value="" style="html=1;verticalAlign=bottom;endArrow=open;dashed=1;endSize=8;edgeStyle=elbowEdgeStyle;elbow=vertical;curved=0;rounded=0;" edge="1" parent="1">
          <mxGeometry relative="1" as="geometry">
            <mxPoint x="270" y="340" as="targetPoint" />
            <Array as="points">
              <mxPoint x="545" y="340.40999999999997" />
            </Array>
            <mxPoint x="400" y="340" as="sourcePoint" />
          </mxGeometry>
        </mxCell>
      </root>
    </mxGraphModel>
  </diagram>
</mxfile>
